<?xml version="1.0" encoding="UTF-8"?>
<svg width="200" height="60" viewBox="0 0 200 60" fill="none" xmlns="http://www.w3.org/2000/svg">
  <!-- Dell-inspired logo for Deltri -->
  <rect width="200" height="60" fill="white"/>
  <path d="M30 15H50C55.5228 15 60 19.4772 60 25V35C60 40.5228 55.5228 45 50 45H30C24.4772 45 20 40.5228 20 35V25C20 19.4772 24.4772 15 30 15Z" fill="#0076CE"/>
  <path d="M35 25L35 35" stroke="white" stroke-width="3" stroke-linecap="round"/>
  <path d="M42 25L42 35" stroke="white" stroke-width="3" stroke-linecap="round"/>
  <path d="M49 25L49 35" stroke="white" stroke-width="3" stroke-linecap="round"/>
  <path d="M70 20H75.64C79.0533 20 81.6933 20.8267 83.56 22.48C85.4267 24.1333 86.36 26.5067 86.36 29.6C86.36 32.6933 85.4267 35.0667 83.56 36.72C81.6933 38.3733 79.0533 39.2 75.64 39.2H70V20ZM75.64 36.16C77.9867 36.16 79.7467 35.5733 80.92 34.4C82.0933 33.2267 82.68 31.6267 82.68 29.6C82.68 27.5733 82.0933 25.9733 80.92 24.8C79.7467 23.6267 77.9867 23.04 75.64 23.04H73.68V36.16H75.64Z" fill="#0076CE"/>
  <path d="M89.0625 20H101.062V23.04H92.7425V28H100.262V31.04H92.7425V36.16H101.062V39.2H89.0625V20Z" fill="#0076CE"/>
  <path d="M104.266 20H108.026L114.506 33.52H114.666V20H118.346V39.2H114.586L108.106 25.68H107.946V39.2H104.266V20Z" fill="#0076CE"/>
  <path d="M131.719 20H135.479L141.959 33.52H142.119V20H145.799V39.2H142.039L135.559 25.68H135.399V39.2H131.719V20Z" fill="#0076CE"/>
  <path d="M156.312 20H159.992V39.2H156.312V20Z" fill="#0076CE"/>
</svg>
